<svg id="Layer_1" data-name="Layer 1" xmlns="http://www.w3.org/2000/svg" viewBox="0 0 1030.34 266.04"><defs><style>.cls-1{fill:#d91f27;}.cls-2,.cls-4{fill:#404042;}.cls-3{opacity:0.95;}.cls-4{isolation:isolate;opacity:0.8;}.cls-5{opacity:0.8;}</style></defs><polygon class="cls-1" points="0 259.14 58.55 142.93 96.1 142.93 154.43 259.14 144.37 259.14 108.84 188.97 74.87 259.14 0 259.14"/><polygon class="cls-1" points="144.42 259.14 202.97 142.93 240.52 142.93 298.85 259.14 288.79 259.14 253.26 188.97 219.29 259.14 144.42 259.14"/><path class="cls-1" d="M242.32,146.48H232.24L181.88,46.07l-34,70.16-12.44,26.71H96.11L73,116.23,131.57,0h37.54Q205.71,73.29,242.32,146.48Z"/><path class="cls-2" d="M380.56,46.23l15.67,51.5h-31.5Zm-16-22L325.38,143.41h25.34l8.17-26.5h43.17l8.17,26.5H438.4L399.72,24.23Z"/><polygon class="cls-2" points="612.41 24.23 584.9 98.4 557.06 24.23 521.39 24.23 521.39 143.41 545.57 143.41 545.57 59.73 578.74 143.41 587.57 143.41 620.58 59.73 620.58 143.41 647.41 143.41 647.41 24.23 612.41 24.23"/><path class="cls-2" d="M785.57,46.23l15.67,51.5h-31.5Zm-16-22L730.4,143.41h25.34l8.17-26.5h43.17l8.17,26.5h28.17L804.74,24.23Z"/><polygon class="cls-2" points="1003.09 24.23 1003.09 102.74 957.75 24.23 926.41 24.23 926.41 143.41 950.41 143.41 950.41 58.56 1000.09 143.41 1027.09 143.41 1027.09 24.23 1003.09 24.23"/><g class="cls-3"><path class="cls-4" d="M340.19,255.48a6.63,6.63,0,0,1-3.06.69,6.62,6.62,0,0,1-5.52-2.7,9.78,9.78,0,0,1-1.54-3.16,14.37,14.37,0,0,1-.54-4.18,14,14,0,0,1,.55-4.07,9.81,9.81,0,0,1,1.53-3.11,7.06,7.06,0,0,1,5.66-2.64,5.77,5.77,0,0,1,2.7.61,7.8,7.8,0,0,1,2.17,1.65l1.74-2a9.77,9.77,0,0,0-2.78-2.09,8,8,0,0,0-3.89-.92,10.49,10.49,0,0,0-4.31.88,10.1,10.1,0,0,0-3.46,2.5,11.75,11.75,0,0,0-2.28,4,15.8,15.8,0,0,0-.82,5.28,16.07,16.07,0,0,0,.82,5.32,11.62,11.62,0,0,0,2.31,4,9.45,9.45,0,0,0,3.38,2.46,10.37,10.37,0,0,0,4.18.87,8.92,8.92,0,0,0,4.18-.94,10.24,10.24,0,0,0,3.23-2.59l-1.74-1.89A10,10,0,0,1,340.19,255.48Z"/><path class="cls-4" d="M365.15,242.33a7.52,7.52,0,0,0-2.64-1.85,8.23,8.23,0,0,0-6.35,0,7.59,7.59,0,0,0-2.66,1.85,9.25,9.25,0,0,0-1.84,3,10.85,10.85,0,0,0-.68,4,10.68,10.68,0,0,0,.68,3.92,8.91,8.91,0,0,0,1.84,3,8.14,8.14,0,0,0,9,1.83,7.69,7.69,0,0,0,2.64-1.83,8.91,8.91,0,0,0,1.84-3,12.06,12.06,0,0,0,0-8A9.1,9.1,0,0,0,365.15,242.33Zm-1.06,9.86a6.52,6.52,0,0,1-1,2.17,4.81,4.81,0,0,1-1.65,1.39,4.7,4.7,0,0,1-4.17,0,4.85,4.85,0,0,1-1.66-1.39,6.74,6.74,0,0,1-1.06-2.17,11,11,0,0,1,0-5.57,7,7,0,0,1,1.06-2.21,4.85,4.85,0,0,1,1.66-1.39,4.7,4.7,0,0,1,4.17,0,4.81,4.81,0,0,1,1.65,1.39,7,7,0,0,1,1,2.21,10.4,10.4,0,0,1,0,5.57Z"/><path class="cls-4" d="M385.16,239.9a6.17,6.17,0,0,0-3.31.87,14.36,14.36,0,0,0-2.79,2.18H379l-.27-2.61h-2.52v18.1h3V245.38a17.45,17.45,0,0,1,2.45-2.09,4.6,4.6,0,0,1,2.5-.69,3,3,0,0,1,2.59,1.13,6.46,6.46,0,0,1,.82,3.63v11h3.16V247a8.87,8.87,0,0,0-1.4-5.28A4.82,4.82,0,0,0,385.16,239.9Z"/><path class="cls-4" d="M409.81,249.85a7.39,7.39,0,0,0-1.76-1L406.1,248l-1.51-.57a6.7,6.7,0,0,1-1.28-.65,4,4,0,0,1-.89-.81,1.77,1.77,0,0,1-.32-1.07,2.51,2.51,0,0,1,.79-1.83,3.57,3.57,0,0,1,2.51-.78,5.33,5.33,0,0,1,2.12.37,9.2,9.2,0,0,1,1.93,1.15l1.39-1.93a10.22,10.22,0,0,0-2.47-1.4,8.74,8.74,0,0,0-5.74-.2,5.65,5.65,0,0,0-1.93,1.08,4.49,4.49,0,0,0-1.23,1.63,4.67,4.67,0,0,0-.43,2,3.74,3.74,0,0,0,.49,2,5.11,5.11,0,0,0,1.23,1.39,7.8,7.8,0,0,0,1.73,1q1,.42,1.92.75l1.49.6a7.46,7.46,0,0,1,1.39.68,4.16,4.16,0,0,1,.95.92,2.14,2.14,0,0,1,.36,1.23,2.6,2.6,0,0,1-.89,2,3.79,3.79,0,0,1-2.67.81,6.73,6.73,0,0,1-2.87-.58,13,13,0,0,1-2.44-1.56l-1.4,2.08a10.88,10.88,0,0,0,3.05,1.79,9.73,9.73,0,0,0,3.66.71,8.73,8.73,0,0,0,2.78-.43,6,6,0,0,0,2.09-1.17,4.74,4.74,0,0,0,1.25-1.72,4.79,4.79,0,0,0,.44-2.07,4.18,4.18,0,0,0-.51-2.14A4.77,4.77,0,0,0,409.81,249.85Z"/><path class="cls-4" d="M430.64,253.15a12.17,12.17,0,0,1-2.37,2.33,4.47,4.47,0,0,1-2.49.72,3,3,0,0,1-2.57-1.14,6.35,6.35,0,0,1-.81-3.69v-11h-3.08l-.11,11.53a8.88,8.88,0,0,0,1.39,5.28,4.93,4.93,0,0,0,4.18,1.78,6.14,6.14,0,0,0,3.29-.89,12.25,12.25,0,0,0,2.65-2.38h.12l.25,2.78h2.6v-18.1h-3.05Z"/><path class="cls-4" d="M447.63,256.31h-.28a.82.82,0,0,1-.6-.3,1.59,1.59,0,0,1-.25-1V232h-3.05v22.79a5.24,5.24,0,0,0,.74,3,2.77,2.77,0,0,0,2.49,1,5.11,5.11,0,0,0,1-.08,2,2,0,0,0,.71-.23l-.4-2.29A1.8,1.8,0,0,1,447.63,256.31Z"/><path class="cls-4" d="M464.08,256.2a4.07,4.07,0,0,1-1,.14,2.48,2.48,0,0,1-2.17-.91,4.63,4.63,0,0,1-.62-2.57v-10h4.88v-2.49h-4.88v-5h-2.6l-.36,5-2.79.2v2.29h2.68v10a10.69,10.69,0,0,0,.26,2.45,4.92,4.92,0,0,0,.86,1.89,4.47,4.47,0,0,0,1.6,1.23,6,6,0,0,0,2.44.44,7.25,7.25,0,0,0,1.73-.21c.57-.14,1.11-.29,1.61-.46l-.6-2.29Z"/><path class="cls-4" d="M479.26,240a10.55,10.55,0,0,0-4,.76,20.8,20.8,0,0,0-3.08,1.58l1.23,2.11a15.65,15.65,0,0,1,2.42-1.39,7.46,7.46,0,0,1,2.95-.58,3.59,3.59,0,0,1,1.82.39,3,3,0,0,1,1.13,1,4,4,0,0,1,.6,1.4,8.37,8.37,0,0,1,.17,1.67,22,22,0,0,0-8.44,2.2,5,5,0,0,0-2.66,4.55,4.8,4.8,0,0,0,1.52,3.84,5.58,5.58,0,0,0,3.8,1.39,6.86,6.86,0,0,0,3.17-.76,14.33,14.33,0,0,0,2.79-1.84h.08l.25,2.16h2.52V247.44a9,9,0,0,0-1.47-5.4A5.56,5.56,0,0,0,479.26,240Zm3.23,14a11.5,11.5,0,0,1-2.47,1.8,5.32,5.32,0,0,1-2.48.61,3.67,3.67,0,0,1-2.24-.67,2.58,2.58,0,0,1-.9-2.22v0a3.14,3.14,0,0,1,.36-1.56,3.57,3.57,0,0,1,1.39-1.28,10.2,10.2,0,0,1,2.51-1,33.07,33.07,0,0,1,3.83-.7Z"/><path class="cls-4" d="M504,239.9a6.22,6.22,0,0,0-3.31.87,14.3,14.3,0,0,0-2.78,2.18h-.12l-.26-2.61H495l0,18.1h3V245.38a16.9,16.9,0,0,1,2.45-2.09,4.54,4.54,0,0,1,2.49-.69,3,3,0,0,1,2.59,1.13,6.39,6.39,0,0,1,.83,3.63v11h3V247a8.84,8.84,0,0,0-1.32-5.28A4.84,4.84,0,0,0,504,239.9Z"/><path class="cls-4" d="M528.85,255.7a5.37,5.37,0,0,1-4.63,0,5,5,0,0,1-1.76-1.39,6.3,6.3,0,0,1-1.13-2.18,9,9,0,0,1-.41-2.78,9.37,9.37,0,0,1,.42-2.78,7.74,7.74,0,0,1,1.17-2.22,5.1,5.1,0,0,1,4-1.92,4.11,4.11,0,0,1,2,.45A9.11,9.11,0,0,1,530.2,244l1.51-2a9.45,9.45,0,0,0-2.2-1.51,6.72,6.72,0,0,0-3.06-.65,8.85,8.85,0,0,0-3.33.64,7.66,7.66,0,0,0-2.78,1.85,8.78,8.78,0,0,0-1.89,3,10.48,10.48,0,0,0-.71,4,10.88,10.88,0,0,0,.64,3.91,8.39,8.39,0,0,0,1.78,3,7.5,7.5,0,0,0,2.69,1.82,8.49,8.49,0,0,0,3.34.64,7.69,7.69,0,0,0,3.13-.64,9.94,9.94,0,0,0,2.78-1.7l-1.39-2A9.17,9.17,0,0,1,528.85,255.7Z"/><path class="cls-4" d="M547.61,250.23c-.25.79-.5,1.64-.75,2.53s-.5,1.74-.78,2.56h-.14c-.28-.85-.57-1.71-.88-2.59l-.87-2.5-3.68-10h-3.14l7.24,18.09-.42,1.4a7.66,7.66,0,0,1-1.53,2.78,3.26,3.26,0,0,1-3.25,1l-.72-.21-.6,2.41a4.06,4.06,0,0,0,1,.28,9.05,9.05,0,0,0,3.65-.47,6.17,6.17,0,0,0,1.85-1.31,8.28,8.28,0,0,0,1.39-2,21,21,0,0,0,1.07-2.49l6.8-19.49h-3Z"/><path class="cls-4" d="M586.69,254a23.85,23.85,0,0,0,2.48-4.18,33.59,33.59,0,0,0,1.67-4.66H588a21.59,21.59,0,0,1-1.4,3.9,22.47,22.47,0,0,1-2,3.3,32.72,32.72,0,0,1-3.36-3.19,24,24,0,0,1-2.78-3.64l2-1.5a15.13,15.13,0,0,0,1.77-1.63,8.21,8.21,0,0,0,1.25-1.88,5,5,0,0,0,.49-2.18,4.9,4.9,0,0,0-1.27-3.5,4.6,4.6,0,0,0-3.52-1.39,5.85,5.85,0,0,0-2.3.44,5.51,5.51,0,0,0-1.78,1.23A5.82,5.82,0,0,0,574,237a6.23,6.23,0,0,0-.4,2.26A9.38,9.38,0,0,0,574,242a19.22,19.22,0,0,0,1.16,3c-.62.46-1.21.92-1.8,1.4a10.81,10.81,0,0,0-1.53,1.57,6.9,6.9,0,0,0-1.06,1.87,6,6,0,0,0-.39,2.22,6.83,6.83,0,0,0,.53,2.79,6.47,6.47,0,0,0,1.53,2.13,7.44,7.44,0,0,0,2.33,1.39,8.46,8.46,0,0,0,3,.5,9.51,9.51,0,0,0,3.87-.76,11.58,11.58,0,0,0,3.13-2,22.81,22.81,0,0,0,2.9,1.72,16.74,16.74,0,0,0,2.78,1.06l.8-2.52a12.74,12.74,0,0,1-2.16-.89A25.08,25.08,0,0,1,586.69,254Zm-10.44-14.72a3.83,3.83,0,0,1,.88-2.49,2.66,2.66,0,0,1,2.18-1,2,2,0,0,1,1.77.79,3.39,3.39,0,0,1,.53,1.88,3.31,3.31,0,0,1-.33,1.49,5.39,5.39,0,0,1-.91,1.31,11.12,11.12,0,0,1-1.39,1.18c-.5.39-1,.77-1.57,1.13a14.14,14.14,0,0,1-.84-2.19,7.64,7.64,0,0,1-.32-2.07Zm4.34,16.5a6,6,0,0,1-2.4.52,5.67,5.67,0,0,1-1.88-.32,4.43,4.43,0,0,1-1.52-.91,4.11,4.11,0,0,1-1-1.39,4.44,4.44,0,0,1-.37-1.83,4.05,4.05,0,0,1,.87-2.59,13.47,13.47,0,0,1,2.16-2.11,34,34,0,0,0,3,3.81,41.24,41.24,0,0,0,3.44,3.43A9.49,9.49,0,0,1,580.59,255.81Z"/><path class="cls-4" d="M621.41,245.44v-.15a5.47,5.47,0,0,0,3.23-2,6.13,6.13,0,0,0,.42-6.07,4.78,4.78,0,0,0-1.73-1.84,7.86,7.86,0,0,0-2.64-1.05,16.2,16.2,0,0,0-3.4-.33h-7.24v24.46h7.83a15.16,15.16,0,0,0,3.73-.44,8.81,8.81,0,0,0,2.91-1.4,6.05,6.05,0,0,0,1.89-2.22,7,7,0,0,0,.67-3.12,5.29,5.29,0,0,0-1.49-4A7.26,7.26,0,0,0,621.41,245.44Zm-8.17-9H617a8.32,8.32,0,0,1,4.27.88,3.09,3.09,0,0,1,1.39,2.87,3.71,3.71,0,0,1-1.39,3.11,7.3,7.3,0,0,1-4.48,1.09h-3.54ZM624,251.1a4.17,4.17,0,0,1-1.69,3.61,8.69,8.69,0,0,1-4.88,1.17l-4.2.06v-9.21h4.18a9.32,9.32,0,0,1,4.91,1.06A3.59,3.59,0,0,1,624,251.1Z"/><path class="cls-4" d="M646.3,253.15a12.12,12.12,0,0,1-2.36,2.33,4.49,4.49,0,0,1-2.49.72,3,3,0,0,1-2.58-1.14,6.51,6.51,0,0,1-.79-3.69v-11H635l0,11.53a8.88,8.88,0,0,0,1.4,5.28,4.9,4.9,0,0,0,4.17,1.78,6.14,6.14,0,0,0,3.29-.89,12.3,12.3,0,0,0,2.66-2.38h.11l.26,2.78h2.52v-18.1H646.3Z"/><path class="cls-4" d="M668.76,249.85a7.32,7.32,0,0,0-1.75-1l-2-.78-1.51-.57a5.71,5.71,0,0,1-1.28-.65,3.61,3.61,0,0,1-.89-.81,1.72,1.72,0,0,1-.33-1.07,2.44,2.44,0,0,1,.79-1.83,3.55,3.55,0,0,1,2.51-.78,5.38,5.38,0,0,1,2.13.37,9,9,0,0,1,1.93,1.15l1.39-1.93a10,10,0,0,0-2.47-1.4,8.71,8.71,0,0,0-5.73-.2,5.79,5.79,0,0,0-1.94,1.08,4.57,4.57,0,0,0-1.23,1.63,4.67,4.67,0,0,0-.43,2,3.83,3.83,0,0,0,.49,2,5.13,5.13,0,0,0,1.24,1.39,8,8,0,0,0,1.72,1c.64.28,1.28.53,1.94.75l1.47.6a7.46,7.46,0,0,1,1.39.68,4.16,4.16,0,0,1,1,.92,2,2,0,0,1,.36,1.23,2.6,2.6,0,0,1-.89,2,3.75,3.75,0,0,1-2.66.81,6.81,6.81,0,0,1-2.88-.58,12.58,12.58,0,0,1-2.43-1.56l-1.44,2.08a11.17,11.17,0,0,0,3,1.79,9.87,9.87,0,0,0,3.68.71,8.77,8.77,0,0,0,2.78-.43,6,6,0,0,0,2.09-1.17,4.74,4.74,0,0,0,1.25-1.72,4.93,4.93,0,0,0,.43-2.07,4.17,4.17,0,0,0-.5-2.14A4.91,4.91,0,0,0,668.76,249.85Z"/><path class="cls-4" d="M678.53,233.3l0,0a1.94,1.94,0,0,0,0,2.75,2.3,2.3,0,0,0,3,0l0,0a1.94,1.94,0,0,0,0-2.75A2.34,2.34,0,0,0,678.53,233.3Z"/><rect class="cls-4" x="678.48" y="240.34" width="3.05" height="18.1"/><path class="cls-4" d="M700.35,239.9a6.19,6.19,0,0,0-3.31.87,14.36,14.36,0,0,0-2.79,2.18h-.11l-.26-2.61h-2.52v18.1h3V245.38a17.37,17.37,0,0,1,2.44-2.09,4.57,4.57,0,0,1,2.49-.69,3,3,0,0,1,2.61,1.13,6.41,6.41,0,0,1,.86,3.63v11h3.05V247a8.91,8.91,0,0,0-1.32-5.28A4.85,4.85,0,0,0,700.35,239.9Z"/><path class="cls-4" d="M727.48,242.21a5.89,5.89,0,0,0-2.27-1.71,7.49,7.49,0,0,0-3.06-.6,7.28,7.28,0,0,0-3,.65,7.8,7.8,0,0,0-2.57,1.88,9.44,9.44,0,0,0-1.83,3,11.56,11.56,0,0,0-.68,4,11.11,11.11,0,0,0,.59,4,8.65,8.65,0,0,0,1.83,3,8.2,8.2,0,0,0,2.79,1.85,8.79,8.79,0,0,0,3.4.65,9.09,9.09,0,0,0,3.3-.56,16.12,16.12,0,0,0,2.64-1.29l-1.08-2a10.36,10.36,0,0,1-2.09,1,7,7,0,0,1-2.4.39,5.54,5.54,0,0,1-4.17-1.71,7.16,7.16,0,0,1-1.8-4.64h12.17a10.34,10.34,0,0,0,.11-1.67,11.69,11.69,0,0,0-.47-3.48A7.77,7.77,0,0,0,727.48,242.21ZM717,248.08a8.12,8.12,0,0,1,.61-2.42,6,6,0,0,1,1.17-1.78,4.91,4.91,0,0,1,1.59-1.11,4.13,4.13,0,0,1,1.83-.39,4,4,0,0,1,3.28,1.39,6.73,6.73,0,0,1,1.17,4.24Z"/><path class="cls-4" d="M747.07,249.77a7,7,0,0,0-1.75-1l-2-.78-1.51-.57a6.2,6.2,0,0,1-1.28-.66,3.39,3.39,0,0,1-.89-.8,1.73,1.73,0,0,1-.33-1.08,2.47,2.47,0,0,1,.79-1.82,3.45,3.45,0,0,1,2.51-.78,5.29,5.29,0,0,1,2.18.45,9.27,9.27,0,0,1,1.94,1.15l1.39-1.93a10.16,10.16,0,0,0-2.46-1.4,8.7,8.7,0,0,0-5.74-.2,5.93,5.93,0,0,0-2,1.08,4.78,4.78,0,0,0-1.65,3.65,3.92,3.92,0,0,0,.48,2,5.48,5.48,0,0,0,1.24,1.39,8.64,8.64,0,0,0,1.73,1c.64.28,1.28.53,1.93.75l1.48.6a7.78,7.78,0,0,1,1.39.68,4.16,4.16,0,0,1,1,.92,2.07,2.07,0,0,1,.37,1.23,2.65,2.65,0,0,1-.89,2,3.84,3.84,0,0,1-2.67.81,6.78,6.78,0,0,1-2.88-.58,12.5,12.5,0,0,1-2.42-1.56l-1.49,2a11.19,11.19,0,0,0,3,1.78,9.49,9.49,0,0,0,3.68.71,8.42,8.42,0,0,0,2.78-.43,5.79,5.79,0,0,0,2.08-1.17,4.7,4.7,0,0,0,1.25-1.71,4.78,4.78,0,0,0,.43-2.07,4.23,4.23,0,0,0-.5-2.15A5,5,0,0,0,747.07,249.77Z"/><path class="cls-4" d="M766.44,249.77a7.25,7.25,0,0,0-1.76-1l-1.95-.78-1.5-.57a6.2,6.2,0,0,1-1.28-.66,3.24,3.24,0,0,1-.89-.8,1.74,1.74,0,0,1-.34-1.08,2.48,2.48,0,0,1,.8-1.82,3.44,3.44,0,0,1,2.5-.78,5.34,5.34,0,0,1,2.19.45,9,9,0,0,1,1.93,1.15l1.4-1.93a10.41,10.41,0,0,0-2.47-1.4,8.67,8.67,0,0,0-5.73-.2,5.74,5.74,0,0,0-2,1.08,4.69,4.69,0,0,0-1.23,1.63,5,5,0,0,0-.43,2,3.83,3.83,0,0,0,.49,2,5.13,5.13,0,0,0,1.24,1.39,8.85,8.85,0,0,0,1.72,1c.64.28,1.3.53,1.94.75l1.47.6a7.25,7.25,0,0,1,1.33.68,3.91,3.91,0,0,1,.94.92,2,2,0,0,1,.38,1.23,2.68,2.68,0,0,1-.89,2,3.84,3.84,0,0,1-2.67.81,6.82,6.82,0,0,1-2.89-.58,13.14,13.14,0,0,1-2.42-1.56l-1.42,2a11.39,11.39,0,0,0,3,1.78,9.49,9.49,0,0,0,3.68.71,8.5,8.5,0,0,0,2.78-.43,5.75,5.75,0,0,0,2.07-1.17,4.62,4.62,0,0,0,1.26-1.71,4.93,4.93,0,0,0,.43-2.07,4.34,4.34,0,0,0-.5-2.15A4.87,4.87,0,0,0,766.44,249.77Z"/><path class="cls-4" d="M793.65,234h-6.08l-.06,24.41h6.24a13.2,13.2,0,0,0,4.86-.84,9.53,9.53,0,0,0,3.56-2.41,10.41,10.41,0,0,0,2.25-3.92,16.79,16.79,0,0,0,.73-5.17,12.6,12.6,0,0,0-2.92-9A11.22,11.22,0,0,0,793.65,234Zm6.2,19.27a7.87,7.87,0,0,1-6.42,2.56h-2.78v-19.3h2.78a8,8,0,0,1,6.42,2.44,10.59,10.59,0,0,1,2.12,7.1A11,11,0,0,1,799.85,253.25Z"/><path class="cls-4" d="M825.92,242.21a5.86,5.86,0,0,0-2.26-1.71,7.54,7.54,0,0,0-3.07-.6,7.23,7.23,0,0,0-3,.65,7.73,7.73,0,0,0-2.58,1.88,9.23,9.23,0,0,0-1.82,3,12.7,12.7,0,0,0-.1,8,8.52,8.52,0,0,0,1.84,3,8.06,8.06,0,0,0,2.78,1.85,8.79,8.79,0,0,0,3.4.65,9.09,9.09,0,0,0,3.3-.56,16.12,16.12,0,0,0,2.64-1.29L826,255a10.36,10.36,0,0,1-2.09,1,7,7,0,0,1-2.4.39,5.55,5.55,0,0,1-4.17-1.71,7.21,7.21,0,0,1-1.8-4.64h12.17a9.31,9.31,0,0,0,.11-1.67,11.69,11.69,0,0,0-.47-3.48A7.77,7.77,0,0,0,825.92,242.21Zm-10.45,5.87a8.12,8.12,0,0,1,.61-2.42,6.24,6.24,0,0,1,1.17-1.78,4.91,4.91,0,0,1,1.59-1.11,4.14,4.14,0,0,1,1.84-.39,3.94,3.94,0,0,1,3.27,1.39,6.67,6.67,0,0,1,1.17,4.24Z"/><path class="cls-4" d="M843.61,250.59c-.28.89-.56,1.78-.83,2.67s-.54,1.77-.8,2.63h-.16c-.27-.9-.54-1.77-.83-2.63s-.57-1.74-.84-2.67l-3.41-10.25h-3.16l6.5,18.1h3.55l6.39-18.1h-3Z"/><path class="cls-4" d="M869.18,242.21a5.69,5.69,0,0,0-2.26-1.71,7.46,7.46,0,0,0-3.06-.6,7.28,7.28,0,0,0-3,.65,7.8,7.8,0,0,0-2.57,1.88,9.23,9.23,0,0,0-1.82,3,10.91,10.91,0,0,0-.69,4,11.11,11.11,0,0,0,.59,4,8.52,8.52,0,0,0,1.84,3,8.06,8.06,0,0,0,2.78,1.85,8.79,8.79,0,0,0,3.4.65,9.09,9.09,0,0,0,3.3-.56,16.43,16.43,0,0,0,2.63-1.29l-1.07-2a10.36,10.36,0,0,1-2.09,1,7,7,0,0,1-2.4.39,5.54,5.54,0,0,1-4.17-1.71,7.16,7.16,0,0,1-1.8-4.64H871a11.62,11.62,0,0,0,.11-1.67,11.4,11.4,0,0,0-.49-3.48A7.58,7.58,0,0,0,869.18,242.21Zm-10.44,5.87a8.12,8.12,0,0,1,.61-2.42,5.56,5.56,0,0,1,1.17-1.78,4.93,4.93,0,0,1,1.57-1.11,4.2,4.2,0,0,1,1.84-.39,3.94,3.94,0,0,1,3.29,1.39,6.67,6.67,0,0,1,1.17,4.24Z"/><path class="cls-4" d="M883.44,256.31h-.28a.82.82,0,0,1-.6-.3,1.59,1.59,0,0,1-.25-1V232h-3v22.79a5.24,5.24,0,0,0,.74,3,2.77,2.77,0,0,0,2.49,1,5.15,5.15,0,0,0,1-.08,1.93,1.93,0,0,0,.7-.23l-.4-2.29A1.8,1.8,0,0,1,883.44,256.31Z"/><path class="cls-4" d="M905.31,242.39a7.56,7.56,0,0,0-2.65-1.85,8.14,8.14,0,0,0-6.35,0,7.69,7.69,0,0,0-2.66,1.85,9.31,9.31,0,0,0-1.83,3,11.06,11.06,0,0,0-.69,4,10.87,10.87,0,0,0,.69,4,9.09,9.09,0,0,0,1.83,3,8.13,8.13,0,0,0,9,1.82,7.94,7.94,0,0,0,2.65-1.82,9.09,9.09,0,0,0,1.83-3,12.09,12.09,0,0,0,0-8A9.13,9.13,0,0,0,905.31,242.39Zm-1.06,9.8a6.74,6.74,0,0,1-1.06,2.17,4.78,4.78,0,0,1-1.64,1.39,4.72,4.72,0,0,1-4.18,0,4.81,4.81,0,0,1-1.65-1.39,6.36,6.36,0,0,1-1.06-2.17,9.7,9.7,0,0,1-.37-2.78h0a9.76,9.76,0,0,1,.36-2.79,7,7,0,0,1,1.06-2.21,4.81,4.81,0,0,1,1.65-1.39,4.72,4.72,0,0,1,4.18,0,4.78,4.78,0,0,1,1.64,1.39,7,7,0,0,1,1.06,2.21,10.49,10.49,0,0,1,.38,2.79A10,10,0,0,1,904.25,252.19Z"/><path class="cls-4" d="M930.28,242.4a6.13,6.13,0,0,0-2.22-1.85,7,7,0,0,0-3.08-.65,6.5,6.5,0,0,0-3.06.75,13.08,13.08,0,0,0-2.69,1.78h-.11l-.27-2.09h-2.52V266h3v-6.1l0-3.16a11.71,11.71,0,0,0,2.51,1.53,6.16,6.16,0,0,0,2.5.56,7.06,7.06,0,0,0,3-.65,7.28,7.28,0,0,0,2.49-1.91,9.79,9.79,0,0,0,1.7-3.06,12.25,12.25,0,0,0,.62-4.11,14.32,14.32,0,0,0-.45-3.8A8.48,8.48,0,0,0,930.28,242.4Zm-1.72,9.68a7,7,0,0,1-1.08,2.25,4.92,4.92,0,0,1-1.64,1.4,4.33,4.33,0,0,1-2.06.5,5.85,5.85,0,0,1-2-.43,8,8,0,0,1-2.38-1.47v-9.49a13.05,13.05,0,0,1,2.5-1.81,4.77,4.77,0,0,1,2.33-.64,4.54,4.54,0,0,1,2.17.49,4.11,4.11,0,0,1,1.48,1.39,5.88,5.88,0,0,1,.83,2.1,12.25,12.25,0,0,1,.27,2.7A10.91,10.91,0,0,1,928.56,252.08Z"/><path class="cls-4" d="M960,239.9a5.56,5.56,0,0,0-3.09.94,15.07,15.07,0,0,0-2.78,2.51,5.31,5.31,0,0,0-1.73-2.53,5.09,5.09,0,0,0-3.25-.92,5.62,5.62,0,0,0-3,.87,12.8,12.8,0,0,0-2.58,2.18h-.11l-.26-2.61h-2.52v18h3.05V245.33c1.66-1.87,3.13-2.79,4.53-2.79a3,3,0,0,1,2.56,1.13,6.51,6.51,0,0,1,.81,3.69v11h3V245.33c1.66-1.87,3.14-2.79,4.53-2.79a2.91,2.91,0,0,1,2.52,1.13,6.51,6.51,0,0,1,.82,3.69v11h3.05V247a8.63,8.63,0,0,0-1.39-5.28A4.88,4.88,0,0,0,960,239.9Z"/><path class="cls-4" d="M987.27,242.21A6,6,0,0,0,985,240.5a7.54,7.54,0,0,0-3.07-.6,7.23,7.23,0,0,0-3,.65,7.73,7.73,0,0,0-2.58,1.88,9.23,9.23,0,0,0-1.82,3,10.91,10.91,0,0,0-.69,4,11.34,11.34,0,0,0,.6,4,8.67,8.67,0,0,0,1.84,3,8.2,8.2,0,0,0,2.79,1.85,8.74,8.74,0,0,0,3.39.65,9.06,9.06,0,0,0,3.3-.56,16.22,16.22,0,0,0,2.65-1.29l-1.09-2a10.36,10.36,0,0,1-2.09,1,7,7,0,0,1-2.39.39,5.58,5.58,0,0,1-4.18-1.71,7.15,7.15,0,0,1-1.79-4.64H989a10.34,10.34,0,0,0,.11-1.67,11.39,11.39,0,0,0-.48-3.48A7.92,7.92,0,0,0,987.27,242.21Zm-10.46,5.87a8.12,8.12,0,0,1,.61-2.42,5.73,5.73,0,0,1,1.17-1.78,4.86,4.86,0,0,1,1.58-1.11,4.13,4.13,0,0,1,1.83-.39,3.94,3.94,0,0,1,3.29,1.39,6.67,6.67,0,0,1,1.17,4.24Z"/><path class="cls-4" d="M1006.35,239.9a6.2,6.2,0,0,0-3.33.87,15.45,15.45,0,0,0-2.78,2.18h-.11l-.27-2.61h-2.53l.08,18h3.05V245.33a16.22,16.22,0,0,1,2.45-2.09,4.54,4.54,0,0,1,2.48-.7,3,3,0,0,1,2.6,1.13,6.35,6.35,0,0,1,.81,3.69v11h3.05V247a8.91,8.91,0,0,0-1.32-5.28A4.84,4.84,0,0,0,1006.35,239.9Z"/><path class="cls-4" d="M1029.74,255.87l-1,.33a4,4,0,0,1-1,.14,2.43,2.43,0,0,1-2.17-.91,4.53,4.53,0,0,1-.62-2.57v-10h4.86v-2.49h-4.86v-5h-2.53l-.38,5-2.78.2v2.29h2.67l0,10a10.67,10.67,0,0,0,.25,2.45,4.94,4.94,0,0,0,.87,1.89,4.35,4.35,0,0,0,1.59,1.23,6.14,6.14,0,0,0,2.44.44,7.1,7.1,0,0,0,1.72-.21c.59-.14,1.12-.29,1.62-.46Z"/></g><g class="cls-5"><path class="cls-2" d="M345.19,175.06h-2.05a.66.66,0,0,0-.53.22.78.78,0,0,0-.21.54v31.06c0,.57,0,1.24-.07,2a10,10,0,0,1-1.81.23h-1.77a13,13,0,0,1-5-.79,6.36,6.36,0,0,1-2.78-2.19,7.64,7.64,0,0,1-1.24-3.25,25.68,25.68,0,0,1-.29-4c0-.46,0-1,.08-1.72l.17-1.92c.08-.57-.13-.85-.62-.85h-1.79c-.38,0-.63.25-.74.78s-.15.81-.21,1.28-.1,1-.14,1.4a11.09,11.09,0,0,1-.1,1.39,3.94,3.94,0,0,0,0,1,20.75,20.75,0,0,0,.62,5.21,9.1,9.1,0,0,0,2.07,3.9,9.41,9.41,0,0,0,3.89,2.42,18.46,18.46,0,0,0,6,.84,24.64,24.64,0,0,0,3.3-.14,22.37,22.37,0,0,0,2.93-.48,2.09,2.09,0,0,0,.64-.3.83.83,0,0,0,.25-.59V175.79a.78.78,0,0,0-.19-.54A.63.63,0,0,0,345.19,175.06Z"/><path class="cls-2" d="M489.43,202.18h-8.2a4,4,0,0,1-2-2.09,8.16,8.16,0,0,1-.83-3.79v-.48a5.14,5.14,0,0,1,1.72-4.36,7.65,7.65,0,0,1,4.76-1.39h1.87l1.85.12a1.05,1.05,0,0,0,.6-.1.59.59,0,0,0,.29-.59v-1.45a.58.58,0,0,0-.25-.56,2.38,2.38,0,0,0-.7-.22,21.94,21.94,0,0,0-2.29-.24h-1.79a13.75,13.75,0,0,0-3.77.5,8.49,8.49,0,0,0-3,1.58,7.21,7.21,0,0,0-2,2.67,9.2,9.2,0,0,0-.71,3.77V196a13.93,13.93,0,0,0,.46,3.8,6.57,6.57,0,0,0,1.28,2.49h-5.42a5.69,5.69,0,0,1-.82-.08,4.59,4.59,0,0,1-1-.28,2.68,2.68,0,0,1-.83-.59,1.42,1.42,0,0,1-.41-.93,7,7,0,0,0,.1-1V196a9.1,9.1,0,0,0-2.07-6.49,8.14,8.14,0,0,0-6.17-2.2,8.39,8.39,0,0,0-6.27,2.24,9,9,0,0,0-2.17,6.45V200a4.76,4.76,0,0,1-.12,1.19,1,1,0,0,1-.43.62,2.71,2.71,0,0,1-.8.35,4.1,4.1,0,0,1-.92.14h-86a2,2,0,0,1-.85-.33,1.39,1.39,0,0,1-.53-.71,3.51,3.51,0,0,1-.18-1.28V175.81a1,1,0,0,0-.21-.57.73.73,0,0,0-.53-.24h-2a.8.8,0,0,0-.56.24.87.87,0,0,0-.22.57v24.77a7.72,7.72,0,0,0,.35,2.52,3.61,3.61,0,0,0,1,1.57,3.74,3.74,0,0,0,1.67.82,10.81,10.81,0,0,0,2.12.21H448.4a12.49,12.49,0,0,0,2.79-.31,3.8,3.8,0,0,0,2.11-1.25,5.62,5.62,0,0,0,2.79,2.08,11.45,11.45,0,0,0,4.06.66c3.06,0,5.25-.93,6.52-2.78a4.66,4.66,0,0,0,2.07,1.2,9,9,0,0,0,2.63.39h18.1a1.06,1.06,0,0,0,.57-.17.54.54,0,0,0,.25-.49v-2.16a.58.58,0,0,0-.25-.51A.88.88,0,0,0,489.43,202.18Zm-24.49-4.08a6.52,6.52,0,0,1-1.1,4.18,4.62,4.62,0,0,1-3.79,1.39,5.89,5.89,0,0,1-3.18-.77,3.62,3.62,0,0,1-1.59-2.49,13.46,13.46,0,0,1-.17-2.28v-1.88a6.87,6.87,0,0,1,1.16-4.29,4.62,4.62,0,0,1,3.85-1.39,4.32,4.32,0,0,1,3.75,1.39,7.24,7.24,0,0,1,1.07,4.26Z"/><path class="cls-2" d="M523,175h-2.09a.7.7,0,0,0-.53.24.9.9,0,0,0-.2.57v24.89c0,.71-.12,1.13-.35,1.27a3.6,3.6,0,0,1-1.53.21H503.58c-.51,0-.78.25-.78.74V205c0,.46.27.7.78.7h15.14a13.82,13.82,0,0,0,1.58-.09l1.4-.11a4.25,4.25,0,0,0,.93-.18,1.26,1.26,0,0,0,.65-.49,2.12,2.12,0,0,0,.25-.69c.06-.58.1-1.23.13-2V175.82a.92.92,0,0,0-.2-.57A.6.6,0,0,0,523,175Z"/><path class="cls-2" d="M507.25,175.68h5.51a1.27,1.27,0,0,0,.51-.08c.13,0,.18-.2.18-.41v-.65c0-.34-.23-.5-.69-.5H510a1.41,1.41,0,0,1-.61-.71,3,3,0,0,1-.29-1.4c0-1.22.72-1.83,2.17-1.83h1.25c.37,0,.55-.16.55-.45v-.57c0-.22-.16-.39-.46-.49l-.81-.12H511a4.5,4.5,0,0,0-2.78.79,3,3,0,0,0-1,2.51,4.82,4.82,0,0,0,.16,1.25,2.83,2.83,0,0,0,.53,1.07h-.69c-.49,0-.73.14-.73.42v.7C506.52,175.52,506.76,175.68,507.25,175.68Z"/><path class="cls-2" d="M509,178.73a.65.65,0,0,0-.54.24.76.76,0,0,0-.22.57V197.8a.67.67,0,0,0,.57.78H511c.49,0,.74-.25.74-.78V179.54a1,1,0,0,0-.18-.57.61.61,0,0,0-.52-.24Z"/><path class="cls-2" d="M539,175h-2a.76.76,0,0,0-.55.24.93.93,0,0,0-.23.57v29.06a.83.83,0,0,0,.23.57.73.73,0,0,0,.55.25h2a.69.69,0,0,0,.53-.25.93.93,0,0,0,.19-.57V175.82a1,1,0,0,0-.19-.57A.73.73,0,0,0,539,175Z"/><path class="cls-2" d="M649.92,209.49h-1.61a.91.91,0,0,0-.67.24.83.83,0,0,0-.27.65v2.2a.82.82,0,0,0,.27.6,1,1,0,0,0,.67.26h1.6a1,1,0,0,0,.65-.26.9.9,0,0,0,.28-.62v-2.24a.85.85,0,0,0-.26-.65A1,1,0,0,0,649.92,209.49Z"/><path class="cls-2" d="M655.63,205.27a1.5,1.5,0,0,0,.67-.49,1.91,1.91,0,0,0,.26-.7,25.41,25.41,0,0,0,.16-2.62V189.92a.85.85,0,0,0-.2-.55.73.73,0,0,0-.57-.23h-2.07a.62.62,0,0,0-.52.23.91.91,0,0,0-.18.55c0,1.06,0,2,.07,2.94s0,1.77,0,2.6v5.22c0,.71-.11,1.13-.34,1.27a3.15,3.15,0,0,1-1.49.21h-70V190a.81.81,0,0,0-.21-.56.66.66,0,0,0-.49-.22h-2a.64.64,0,0,0-.52.22.76.76,0,0,0-.2.56v18.1a8.54,8.54,0,0,1-.21,2.14,2.12,2.12,0,0,1-.74,1.2,2.76,2.76,0,0,1-1.39.53,16.14,16.14,0,0,1-2.2.12h-.85c-.47,0-.69.2-.69.57v1.76a.67.67,0,0,0,.12.43,1,1,0,0,0,.53.22,7.81,7.81,0,0,0,1.07.13h.88a10.84,10.84,0,0,0,3.83-.58,4.4,4.4,0,0,0,2.25-2,5.92,5.92,0,0,0,.62-1.92,16,16,0,0,0,.16-2.4V205.7h70.48a12.75,12.75,0,0,0,1.51-.09l1.31-.11A4.39,4.39,0,0,0,655.63,205.27Z"/><path class="cls-2" d="M656.66,209.49h-1.59a1,1,0,0,0-.67.24.78.78,0,0,0-.3.65v2.18a.81.81,0,0,0,.3.62,1,1,0,0,0,.67.26h1.59a.92.92,0,0,0,.65-.26.83.83,0,0,0,.3-.6v-2.26a.79.79,0,0,0-.3-.65A.94.94,0,0,0,656.66,209.49Z"/><path class="cls-2" d="M722.86,183.87h1.6a1,1,0,0,0,.64-.25.78.78,0,0,0,.29-.61v-2.2a.85.85,0,0,0-.26-.66,1,1,0,0,0-.67-.25h-1.6a.92.92,0,0,0-.67.25.86.86,0,0,0-.27.66V183a.8.8,0,0,0,.27.61A.92.92,0,0,0,722.86,183.87Z"/><path class="cls-2" d="M731.14,179.93h-1.59a1,1,0,0,0-.66.25.81.81,0,0,0-.33.65V183a.79.79,0,0,0,.33.62,1,1,0,0,0,.66.25h1.59a1,1,0,0,0,.65-.25.79.79,0,0,0,.3-.62v-2.2a.79.79,0,0,0-.3-.65A1,1,0,0,0,731.14,179.93Z"/><path class="cls-2" d="M728.72,189.38a.69.69,0,0,0-.57-.22h-2a.6.6,0,0,0-.5.22.87.87,0,0,0-.18.56V200.7c0,.71-.11,1.13-.33,1.27a3.53,3.53,0,0,1-1.51.21h-5.83a4.24,4.24,0,0,0,.19-.84c.06-.34.1-.7.13-1.09a6.46,6.46,0,0,1,.07-1.15,5.14,5.14,0,0,0,0-1v-.66a13.9,13.9,0,0,0-.74-4.83,8.07,8.07,0,0,0-2.11-3.24,8.24,8.24,0,0,0-3.43-1.84,16.6,16.6,0,0,0-4.65-.57,15.24,15.24,0,0,0-1.78.08,16.81,16.81,0,0,0-2.35.32,18.51,18.51,0,0,0-2.55.71,9.94,9.94,0,0,0-2.34,1.25V175.81a.8.8,0,0,0-.22-.55.82.82,0,0,0-.56-.22h-2a.71.71,0,0,0-.52.22.87.87,0,0,0-.2.55v26.37h-8.49V188.25a.71.71,0,0,0-.13-.46,1.18,1.18,0,0,0-.48-.26,12.82,12.82,0,0,0-2.59-.47c-1-.1-2.08-.14-3.16-.14a9.73,9.73,0,0,0-7.19,2.49,9.09,9.09,0,0,0-2.53,6.77v1a8.49,8.49,0,0,0,2.2,6.41,8.77,8.77,0,0,0,6.33,2.13h4.08v1.62a5.39,5.39,0,0,1-.53,2.4,3.44,3.44,0,0,1-1.39,1.39,6.21,6.21,0,0,1-2.21.7,20.3,20.3,0,0,1-2.91.18h-3.47c-.44,0-.65.19-.65.57v1.8a.67.67,0,0,0,.12.43.87.87,0,0,0,.53.22l.73.08,1.18.09h2.28a18.27,18.27,0,0,0,3.91-.39,8.24,8.24,0,0,0,3-1.31,6.43,6.43,0,0,0,2-2.45,9.66,9.66,0,0,0,.81-3.82V205.7h38a12.62,12.62,0,0,0,1.51-.09l1.31-.11a4.63,4.63,0,0,0,.9-.18,1.62,1.62,0,0,0,.67-.49,1.93,1.93,0,0,0,.26-.69,22.88,22.88,0,0,0,.14-2.62v-9.21c0-.62-.05-1.48-.05-2.37A.81.81,0,0,0,728.72,189.38Zm-45.9,12.88h-4a5.24,5.24,0,0,1-4-1.31,6,6,0,0,1-1.22-4.18V196a5.65,5.65,0,0,1,1.57-4.31,5.86,5.86,0,0,1,4.26-1.52h1.79l1.61.12Zm31.95-3.55a10,10,0,0,1-.25,2.78c-.17.46-.43.69-.81.69H698.24v-9.75a7.76,7.76,0,0,1,2-1.06,21.1,21.1,0,0,1,2.36-.65,19.71,19.71,0,0,1,2.29-.32c.73-.06,1.33-.09,1.79-.09a15.93,15.93,0,0,1,3.52.35,5.16,5.16,0,0,1,4,3.64,11.19,11.19,0,0,1,.52,3.73Z"/><path class="cls-2" d="M760.21,187.5a13.28,13.28,0,0,0-2.59-.47c-1-.1-2.07-.14-3.17-.14a9.75,9.75,0,0,0-7.17,2.56,9,9,0,0,0-2.54,6.77v1a8.57,8.57,0,0,0,2.2,6.41,8.17,8.17,0,0,0,5.92,2.13H754a9.2,9.2,0,0,0,1.39-.11c.41-.07.82-.15,1.22-.25a2.34,2.34,0,0,0,.85-.39v2.4a5,5,0,0,1-.52,2.4,3.51,3.51,0,0,1-1.39,1.39,6.4,6.4,0,0,1-2.22.7,20.49,20.49,0,0,1-2.93.18h-3.48q-.66,0-.66.57v1.8a.63.63,0,0,0,.13.43,1,1,0,0,0,.53.22l.73.08,1.19.09h2.28a19,19,0,0,0,4-.39,8,8,0,0,0,3.09-1.4,6.35,6.35,0,0,0,2.05-2.59,10.23,10.23,0,0,0,.73-4.17v-18.5a.67.67,0,0,0-.12-.46A1.23,1.23,0,0,0,760.21,187.5Zm-3.91,14.56a14.41,14.41,0,0,1-2.78.21,5.52,5.52,0,0,1-4.18-1.31,6,6,0,0,1-1.23-4.17V196a5.72,5.72,0,0,1,1.58-4.32,5.86,5.86,0,0,1,4.26-1.52h1.83l1.59.13.06,10.66C757.43,201.55,757.05,201.93,756.3,202.06Z"/><path class="cls-2" d="M811.32,186.23h1.61a1,1,0,0,0,.65-.25.78.78,0,0,0,.28-.61v-2.2a.8.8,0,0,0-.28-.65,1.06,1.06,0,0,0-.65-.24h-1.61a1.07,1.07,0,0,0-.66.24.76.76,0,0,0-.31.65v2.15a.71.71,0,0,0,.31.61A1,1,0,0,0,811.32,186.23Z"/><path class="cls-2" d="M804.64,186.23h1.59a.89.89,0,0,0,.65-.25.75.75,0,0,0,.28-.61v-2.2a.85.85,0,0,0-.26-.65,1,1,0,0,0-.67-.24h-1.59a1,1,0,0,0-.68.24.85.85,0,0,0-.26.65v2.15a.8.8,0,0,0,.26.61A.93.93,0,0,0,804.64,186.23Z"/><path class="cls-2" d="M823.9,189.48a.7.7,0,0,0-.58-.22H821.4a.67.67,0,0,0-.53.22.85.85,0,0,0-.2.56c0,1.05,0,2,.07,2.9s0,1.76,0,2.59v5.23c0,.71-.12,1.12-.34,1.26a3.29,3.29,0,0,1-1.46.21H806.41a18.07,18.07,0,0,1-5.17-.6,6.58,6.58,0,0,1-3-1.68,5.33,5.33,0,0,1-1.4-2.62,15.64,15.64,0,0,1-.33-3.34V192.6c0-.48.07-1,.12-1.59s-.15-.82-.61-.82h-1.61a.91.91,0,0,0-1,.78c-.13.79-.23,1.49-.27,2.1s0,1.2,0,1.77a17.14,17.14,0,0,0,.55,4.51,7.6,7.6,0,0,0,2.13,3.42,9.44,9.44,0,0,0,4,2.18,23.28,23.28,0,0,0,6.43.75h11.85c.78,0,1.51,0,2.17-.09s1.26-.07,1.76-.11a4.89,4.89,0,0,0,1.07-.18,1.44,1.44,0,0,0,.68-.49,2.16,2.16,0,0,0,.27-.69,25.4,25.4,0,0,0,.14-2.62v-9.19c0-.64-.09-1.38-.12-2.29A.8.8,0,0,0,823.9,189.48Z"/><path class="cls-2" d="M839.5,175h-2a.75.75,0,0,0-.56.23.87.87,0,0,0-.22.57v29.06a.87.87,0,0,0,.22.57.75.75,0,0,0,.56.25h2a.66.66,0,0,0,.54-.25.9.9,0,0,0,.2-.57V175.82a.94.94,0,0,0-.2-.57A.69.69,0,0,0,839.5,175Z"/><path class="cls-2" d="M855.48,189.19h-2a.7.7,0,0,0-.54.22.87.87,0,0,0-.2.56v18.1a9,9,0,0,1-.2,2.14,2.12,2.12,0,0,1-1.88,1.73,10.35,10.35,0,0,1-1.76.12h-.65c-.5,0-.74.21-.74.61v1.76c0,.37.22.61.68.69h1.52a9.12,9.12,0,0,0,3.51-.57,4.42,4.42,0,0,0,2.2-2,5.49,5.49,0,0,0,.65-2.2,25.39,25.39,0,0,0,.13-2.62V189.91a.85.85,0,0,0-.21-.56A.62.62,0,0,0,855.48,189.19Z"/><path class="cls-2" d="M921.43,184.9H923a1,1,0,0,0,.66-.25A.8.8,0,0,0,924,184v-2a.86.86,0,0,0-.27-.66.89.89,0,0,0-.67-.28h-1.6a.91.91,0,0,0-.67.28.85.85,0,0,0-.26.66v2a.78.78,0,0,0,.26.61A.92.92,0,0,0,921.43,184.9Z"/><path class="cls-2" d="M924.83,179.68h1.5a1.15,1.15,0,0,0,.68-.22.78.78,0,0,0,.31-.64v-1.93a.72.72,0,0,0-.29-.59.9.9,0,0,0-.66-.25h-1.54a.91.91,0,0,0-.66.25.75.75,0,0,0-.29.59v1.84a.82.82,0,0,0,.27.64A1,1,0,0,0,924.83,179.68Z"/><path class="cls-2" d="M927.15,184a.74.74,0,0,0,.31.61,1,1,0,0,0,.67.25h1.6a.93.93,0,0,0,.64-.25.73.73,0,0,0,.29-.61v-2a.83.83,0,0,0-.29-.66.88.88,0,0,0-.64-.28h-1.6a1,1,0,0,0-.67.28.81.81,0,0,0-.31.66Z"/><path class="cls-2" d="M943.68,183.86h1.59a.94.94,0,0,0,.65-.26.74.74,0,0,0,.28-.61v-2.2a.85.85,0,0,0-.27-.65.91.91,0,0,0-.66-.25h-1.59a.94.94,0,0,0-.68.25.85.85,0,0,0-.27.65V183a.82.82,0,0,0,.27.61A1,1,0,0,0,943.68,183.86Z"/><path class="cls-2" d="M950.36,183.86H952a1,1,0,0,0,.66-.26.75.75,0,0,0,.27-.61v-2.2a.83.83,0,0,0-.27-.65,1,1,0,0,0-.66-.25h-1.6a1,1,0,0,0-.67.25.82.82,0,0,0-.3.65V183a.76.76,0,0,0,.3.61A1.12,1.12,0,0,0,950.36,183.86Z"/><path class="cls-2" d="M981.13,200.44v-9.08c0-.72,0-1.53-.07-2.46a.79.79,0,0,0-.21-.55.76.76,0,0,0-.57-.22h-1.92a.66.66,0,0,0-.53.22.79.79,0,0,0-.21.55c0,2.13.08,4.17.08,6.12v5.75a4.12,4.12,0,0,1,0,.86.69.69,0,0,1-.26.44,1.33,1.33,0,0,1-.56.15h-3.37a7.27,7.27,0,0,1-1.07-.14,3.49,3.49,0,0,1-.88-.29.91.91,0,0,1-.48-.52v-10.8a.81.81,0,0,0-.21-.56.67.67,0,0,0-.53-.22H968.4a.72.72,0,0,0-.55.22.79.79,0,0,0-.23.56v10.31a1.05,1.05,0,0,1-.27.78,2.08,2.08,0,0,1-.69.44,4.77,4.77,0,0,1-.85.19,7.53,7.53,0,0,1-.83.07h-1.76a5.05,5.05,0,0,1-1-.14,4,4,0,0,1-.86-.29.94.94,0,0,1-.5-.52v-9.42a.86.86,0,0,0-.21-.57.64.64,0,0,0-.53-.24h-1.92a.65.65,0,0,0-.53.24.91.91,0,0,0-.21.57v8.81a1.13,1.13,0,0,1-.3.84,1.85,1.85,0,0,1-.73.46,4.68,4.68,0,0,1-.92.18H952a7.93,7.93,0,0,1-1-.14,4.17,4.17,0,0,1-.86-.3.91.91,0,0,1-.5-.5V190a.78.78,0,0,0-.23-.55.75.75,0,0,0-.55-.23H947a.8.8,0,0,0-.78.78V200.7a1.17,1.17,0,0,1-.29.84,2,2,0,0,1-.77.46,4.93,4.93,0,0,1-.93.18h-4.12c-.34,0-.67-.08-1-.14a4.44,4.44,0,0,1-.89-.3.87.87,0,0,1-.53-.5V189a.78.78,0,0,0-.21-.54.66.66,0,0,0-.53-.22H935a.77.77,0,0,0-.77.76v11.88a1,1,0,0,1-.3.79,1.88,1.88,0,0,1-.75.46,5.35,5.35,0,0,1-1,.18h-1.4a11.74,11.74,0,0,1-2.05-.17,1.36,1.36,0,0,1-1.22-.82v-10.8a.81.81,0,0,0-.21-.56.66.66,0,0,0-.53-.22H925a.77.77,0,0,0-.78.75v10.34a1,1,0,0,1-.29.78,1.94,1.94,0,0,1-.69.44,6.42,6.42,0,0,1-.87.19,7.9,7.9,0,0,1-.85.07h-1.68a5.3,5.3,0,0,1-1-.14,3.55,3.55,0,0,1-.85-.29,1,1,0,0,1-.52-.52v-9.42a.86.86,0,0,0-.21-.57.6.6,0,0,0-.51-.24h-1.88a.62.62,0,0,0-.53.24.91.91,0,0,0-.21.57v8.81a1.13,1.13,0,0,1-.3.84,2,2,0,0,1-.74.46,4.16,4.16,0,0,1-.92.18H874.1a7.46,7.46,0,0,1-1.16-.09,1.89,1.89,0,0,1-.86-.33,1.35,1.35,0,0,1-.53-.71,3.48,3.48,0,0,1-.18-1.28v-24a.87.87,0,0,0-.21-.57.7.7,0,0,0-.53-.23h-2a.75.75,0,0,0-.55.23.83.83,0,0,0-.23.57v24.77a7.67,7.67,0,0,0,.34,2.52,3.66,3.66,0,0,0,1,1.57,3.76,3.76,0,0,0,1.67.83,10.37,10.37,0,0,0,2.3.22h38.95a7,7,0,0,0,1.28-.21,11.18,11.18,0,0,0,1.28-.4,3.57,3.57,0,0,0,1.13-.7,4.86,4.86,0,0,0,2.23,1.09,11.41,11.41,0,0,0,2.34.26h.69a7.21,7.21,0,0,0,4.73-1.39,6.08,6.08,0,0,0,2.23,1.08,10.94,10.94,0,0,0,2.55.27h.65a11.67,11.67,0,0,0,2.5-.27,4.88,4.88,0,0,0,2.24-1.08,5.68,5.68,0,0,0,2.49,1.08,13.31,13.31,0,0,0,2.52.27h1.8a13.61,13.61,0,0,0,2.54-.27,5.38,5.38,0,0,0,2.44-1.08,4.89,4.89,0,0,0,2.38,1.08,14.47,14.47,0,0,0,2.78.27h1.48a13.17,13.17,0,0,0,2.65-.27,5.1,5.1,0,0,0,2.36-1.08,4.88,4.88,0,0,0,2.24,1.08,12.42,12.42,0,0,0,2.58.27h.7a10.45,10.45,0,0,0,2.67-.34,4.74,4.74,0,0,0,2.06-1,5.59,5.59,0,0,0,2.53,1.07,19.32,19.32,0,0,0,2.94.24h.64a19.76,19.76,0,0,0,2.48-.1,8.57,8.57,0,0,0,1.81-.31,1.35,1.35,0,0,0,.68-.5A1.74,1.74,0,0,0,981,204a4.79,4.79,0,0,1,.09-1.1,6.53,6.53,0,0,0,0-1.25Z"/><path class="cls-2" d="M1000,198.56h2a.7.7,0,0,0,.53-.23.76.76,0,0,0,.21-.55V178.36c0-.52-.23-.77-.69-.77h-2a.67.67,0,0,0-.53.22.79.79,0,0,0-.19.55v19.49a.79.79,0,0,0,.19.55A.69.69,0,0,0,1000,198.56Z"/><path class="cls-2" d="M1026.68,201.74V175.86a.79.79,0,0,0-.08-.54.67.67,0,0,0-.53-.22h-2a.76.76,0,0,0-.76.76v24.9c0,.71-.11,1.12-.31,1.26a3.15,3.15,0,0,1-1.49.21h-4.45a6.43,6.43,0,0,1-1-.14,4,4,0,0,1-.88-.29,1,1,0,0,1-.51-.5V175.86a.82.82,0,0,0-.2-.54.64.64,0,0,0-.52-.22h-2.05a.66.66,0,0,0-.53.22.78.78,0,0,0-.21.54v24.85a1.09,1.09,0,0,1-.31.84,1.66,1.66,0,0,1-.75.46,4.14,4.14,0,0,1-.93.18H994.56a.66.66,0,0,0-.76.74V205c0,.46.25.7.76.7H1008a15.5,15.5,0,0,0,2.54-.25,3.21,3.21,0,0,1,4.54-.29,2.72,2.72,0,0,1,.3.29,13.43,13.43,0,0,0,2.61.26h3.9c.51,0,1,0,1.53-.08l1.39-.11a5,5,0,0,0,1-.18,1.43,1.43,0,0,0,.56-.53,2.5,2.5,0,0,0,.23-.7c0-.33.1-.7.13-1.1S1026.68,202.18,1026.68,201.74Z"/></g></svg>